# xmcd
#
# Track frame offsets:
#	150
#	18083
#	40205
#	57985
#	78305
#	93010
#	117608
#	138235
#	155328
#	190280
#
# Disc length: 2689 seconds
#
# Revision: 1
# Processed by: cddbd v1.5.1PL2 Copyright (c) Steve Scherf et al.
# Submitted via: audiograbber 1.82.02
#
DISCID=770a7f0a
DTITLE=Gangsta Dre - Gang Banging Poetry
DYEAR=1994
DGENRE=Rap
TTITLE0=Gangsta Dre, Mr. K-Geeta - I Do My Dirt All By Lonely
TTITLE1=Gangsta Dre, Mr. K-Geeta - Main Motto
TTITLE2=Gangsta Dre - Anykind Of Hustle
TTITLE3=Gangsta Dre, Kyky Brown - Gang Banging Poetry
TTITLE4=Gangsta Dre - Manditory Murder
TTITLE5=Gangsta Dre - Cop A Squat
TTITLE6=Gangsta Dre - Jackin' Mission
TTITLE7=Gangsta Dre - Sacramento Summertime
TTITLE8=Gangsta Dre, Melly-Mel, Low G Ronie, Mitchel, P-Dubb, K-Luv, Lil Pig Pe
TTITLE8=nn, Mr. K-Geeta - Suvival On The Battlefield
TTITLE9=Gangsta Dre, Mr. K-Geeta, Melly-Mel - Hydro Shots
EXTD=Cashflow420.com
EXTT0=
EXTT1=
EXTT2=
EXTT3=
EXTT4=
EXTT5=
EXTT6=
EXTT7=
EXTT8=
EXTT9=
PLAYORDER=
